<svg width="32" height="19" viewBox="0 0 32 19" fill="none" xmlns="http://www.w3.org/2000/svg">
<path d="M31.7866 10.0008L23.0323 18.7551C22.894 18.884 22.7111 18.9541 22.5221 18.9508C22.3331 18.9475 22.1528 18.8709 22.0191 18.7372C21.8854 18.6036 21.8089 18.4232 21.8055 18.2342C21.8022 18.0453 21.8724 17.8623 22.0012 17.724L29.5093 10.2148H0.909217C0.715734 10.2148 0.530175 10.1379 0.393362 10.0011C0.256549 9.86426 0.179688 9.6787 0.179688 9.48522C0.179688 9.29174 0.256549 9.10618 0.393362 8.96937C0.530175 8.83255 0.715734 8.75569 0.909217 8.75569H29.5093L22.0012 1.2464C21.8724 1.1081 21.8022 0.925189 21.8055 0.736191C21.8089 0.547193 21.8854 0.366868 22.0191 0.233205C22.1528 0.099543 22.3331 0.0229796 22.5221 0.0196449C22.7111 0.0163103 22.894 0.0864647 23.0323 0.215329L31.7866 8.96969C31.9233 9.10647 32 9.29189 32 9.48522C32 9.67855 31.9233 9.86397 31.7866 10.0008Z" fill="#1C3D7F"/>
</svg>
