<svg width="26" height="27" viewBox="0 0 26 27" fill="none" xmlns="http://www.w3.org/2000/svg">
<path d="M13 7.74121C11.8628 7.74121 10.7511 8.07844 9.80547 8.71026C8.85989 9.34208 8.1229 10.2401 7.68769 11.2908C7.25249 12.3415 7.13862 13.4976 7.36049 14.613C7.58235 15.7284 8.12998 16.7529 8.93414 17.5571C9.73829 18.3612 10.7628 18.9089 11.8782 19.1307C12.9936 19.3526 14.1498 19.2387 15.2004 18.8035C16.2511 18.3683 17.1491 17.6313 17.781 16.6857C18.4128 15.7402 18.75 14.6285 18.75 13.4912C18.748 11.9668 18.1416 10.5054 17.0637 9.42754C15.9858 8.34963 14.5244 7.7432 13 7.74121ZM13 17.7412C12.1594 17.7412 11.3377 17.492 10.6388 17.025C9.93992 16.558 9.39518 15.8942 9.07351 15.1176C8.75184 14.341 8.66768 13.4865 8.83166 12.6621C8.99565 11.8377 9.40042 11.0804 9.9948 10.486C10.5892 9.89163 11.3464 9.48686 12.1709 9.32287C12.9953 9.15889 13.8498 9.24305 14.6264 9.56472C15.403 9.8864 16.0668 10.4311 16.5337 11.13C17.0007 11.8289 17.25 12.6506 17.25 13.4912C17.25 14.6184 16.8022 15.6994 16.0052 16.4964C15.2082 17.2934 14.1272 17.7412 13 17.7412ZM19 0.741211H7C5.2104 0.743196 3.49466 1.45499 2.22922 2.72043C0.963781 3.98587 0.251985 5.70161 0.25 7.49121V19.4912C0.251985 21.2808 0.963781 22.9965 2.22922 24.262C3.49466 25.5274 5.2104 26.2392 7 26.2412H19C20.7896 26.2392 22.5053 25.5274 23.7708 24.262C25.0362 22.9965 25.748 21.2808 25.75 19.4912V7.49121C25.748 5.70161 25.0362 3.98587 23.7708 2.72043C22.5053 1.45499 20.7896 0.743196 19 0.741211ZM24.25 19.4912C24.25 20.8836 23.6969 22.219 22.7123 23.2035C21.7277 24.1881 20.3924 24.7412 19 24.7412H7C5.60761 24.7412 4.27225 24.1881 3.28769 23.2035C2.30312 22.219 1.75 20.8836 1.75 19.4912V7.49121C1.75 6.09882 2.30312 4.76347 3.28769 3.7789C4.27225 2.79433 5.60761 2.24121 7 2.24121H19C20.3924 2.24121 21.7277 2.79433 22.7123 3.7789C23.6969 4.76347 24.25 6.09882 24.25 7.49121V19.4912ZM20.75 6.99121C20.75 7.23844 20.6767 7.48011 20.5393 7.68567C20.402 7.89124 20.2068 8.05145 19.9784 8.14606C19.7499 8.24067 19.4986 8.26542 19.2561 8.21719C19.0137 8.16896 18.7909 8.04991 18.6161 7.87509C18.4413 7.70028 18.3223 7.47755 18.274 7.23507C18.2258 6.9926 18.2505 6.74126 18.3451 6.51286C18.4398 6.28445 18.6 6.08923 18.8055 5.95187C19.0111 5.81452 19.2528 5.74121 19.5 5.74121C19.8315 5.74121 20.1495 5.87291 20.3839 6.10733C20.6183 6.34175 20.75 6.65969 20.75 6.99121Z" fill="#FDFCFA"/>
</svg>
