<?xml version="1.0" standalone="no"?>
<!DOCTYPE svg PUBLIC "-//W3C//DTD SVG 20010904//EN"
 "http://www.w3.org/TR/2001/REC-SVG-20010904/DTD/svg10.dtd">
<svg version="1.0" xmlns="http://www.w3.org/2000/svg"
 width="700.000000pt" height="700.000000pt" viewBox="0 0 700.000000 700.000000"
 preserveAspectRatio="xMidYMid meet">
<metadata>
Created by potrace 1.14, written by Peter Selinger 2001-2017
</metadata>
<g transform="translate(0.000000,700.000000) scale(0.100000,-0.100000)"
fill="#000000" stroke="none">
<path d="M4840 6970 c-43 -8 -68 -21 -97 -52 -45 -48 -52 -84 -52 -269 0 -96
0 -224 -1 -284 l0 -111 -272 1 c-350 1 -383 -8 -430 -114 -30 -66 -11 -156 41
-199 57 -46 62 -46 364 -48 158 -1 290 -4 293 -7 3 -3 5 -129 5 -280 -1 -195
3 -285 12 -309 54 -150 256 -166 328 -26 20 39 21 55 21 330 0 241 2 288 14
289 8 0 130 1 272 1 141 0 275 5 297 10 158 40 186 248 44 328 -44 24 -45 24
-334 24 l-290 1 -2 292 c-2 312 -4 321 -55 376 -36 38 -101 57 -158 47z"/>
<path d="M2824 5751 c-108 -37 -210 -127 -250 -220 -15 -33 -319 -857 -455
-1231 -96 -263 -131 -354 -143 -369 -11 -15 -17 -17 -166 -71 -58 -21 -260
-95 -450 -165 -380 -140 -477 -176 -625 -229 -55 -20 -109 -40 -120 -45 -11
-5 -54 -21 -95 -36 -133 -47 -174 -66 -227 -106 -193 -144 -216 -440 -48 -613
64 -65 105 -88 248 -140 69 -25 186 -68 259 -95 414 -154 1199 -441 1206 -441
4 0 13 -9 19 -19 15 -23 142 -365 438 -1176 132 -364 123 -339 164 -426 85
-182 274 -271 481 -225 88 20 216 120 258 202 11 21 70 176 131 344 61 168
118 321 126 340 8 19 64 172 125 340 192 526 214 583 230 600 8 10 74 39 145
65 296 108 358 130 525 192 96 35 191 71 210 78 19 8 190 71 380 140 190 70
366 140 392 156 192 123 247 380 123 574 -37 59 -98 116 -153 144 -21 11 -132
54 -248 96 -115 42 -270 99 -344 127 -74 27 -184 68 -245 90 -60 22 -171 63
-245 90 -74 28 -219 81 -323 119 -103 37 -196 73 -206 79 -11 5 -31 40 -45 77
-36 98 -144 391 -214 583 -230 630 -347 942 -370 983 -48 89 -150 166 -257
196 -59 16 -172 12 -231 -8z m168 -358 c8 -10 22 -38 31 -63 8 -25 29 -83 47
-130 17 -47 49 -132 70 -190 103 -284 211 -577 219 -595 9 -20 33 -88 86 -235
14 -41 33 -91 41 -110 7 -19 34 -91 59 -160 54 -145 89 -205 153 -258 70 -58
38 -45 597 -249 83 -30 159 -58 170 -63 11 -5 70 -26 130 -49 568 -207 773
-284 793 -297 14 -10 22 -24 22 -44 0 -40 -12 -46 -225 -123 -161 -59 -323
-118 -625 -230 -52 -19 -189 -70 -305 -112 -115 -42 -259 -95 -320 -118 -60
-22 -132 -51 -158 -64 -62 -31 -131 -94 -164 -150 -18 -32 -359 -932 -377
-998 -2 -5 -6 -17 -9 -25 -3 -8 -34 -91 -67 -185 -34 -93 -66 -179 -70 -190
-5 -11 -26 -67 -47 -125 -21 -58 -46 -113 -55 -122 -23 -23 -54 -23 -74 1 -9
10 -59 135 -111 277 -52 143 -98 268 -103 279 -9 22 -18 47 -108 295 -34 91
-96 262 -140 380 -43 118 -92 251 -107 294 -68 187 -143 252 -395 340 -58 21
-114 41 -125 46 -11 4 -47 18 -80 30 -33 12 -76 28 -95 35 -36 14 -138 51
-777 286 -329 121 -363 135 -373 160 -8 19 -9 33 -1 46 9 18 189 88 666 262
169 61 692 253 740 271 28 11 89 34 137 52 106 40 182 94 230 162 42 59 46 70
268 676 37 102 100 273 139 380 40 107 93 251 118 320 112 306 114 310 158
310 12 0 29 -8 37 -17z"/>
<path d="M6230 5271 c-19 -10 -48 -37 -65 -60 -29 -42 -29 -42 -32 -199 -1
-86 -2 -166 -2 -178 -1 -20 -6 -21 -171 -22 -195 -1 -230 -12 -277 -83 -46
-69 -33 -176 27 -227 53 -44 81 -50 250 -52 90 0 166 -3 168 -5 2 -2 5 -79 6
-172 2 -171 6 -192 48 -244 59 -73 185 -74 260 -2 43 41 51 83 52 261 l0 162
156 1 c85 0 165 2 178 5 59 11 119 65 137 124 24 76 -14 169 -84 208 -38 22
-54 24 -214 25 l-172 2 -1 171 c-2 207 -11 232 -95 283 -44 27 -121 28 -169 2z"/>
</g>
</svg>
