<svg width="433" height="103" viewBox="0 0 433 103" fill="none" xmlns="http://www.w3.org/2000/svg">
<path d="M29.1561 61.4049C31.3178 60.532 33.8093 59.3607 36.6308 57.8909C39.4508 56.3375 41.9389 54.957 44.095 53.7494C45.4241 53.1414 46.4659 52.873 47.2204 52.9442C48.0572 52.9303 48.5627 53.1312 48.737 53.5468C48.91 53.8787 48.7509 54.3836 48.26 55.0613C47.8513 55.654 47.0243 56.2536 45.7788 56.8602C43.2043 58.0748 40.5879 59.29 37.9297 60.5059C35.3537 61.6368 32.736 62.7684 30.0764 63.9006C28.248 64.6843 26.534 64.7965 24.9344 64.2371C23.4157 63.509 22.8063 62.0962 23.1063 59.9987C23.2597 59.1592 23.499 58.4438 23.824 57.8525C24.1476 57.1775 24.3868 56.4621 24.5416 55.7062C24.8611 54.7802 25.14 53.9385 25.3786 53.1813C25.7008 52.4226 25.8166 51.8348 25.7259 51.4178C25.7176 50.9157 25.4199 50.6277 24.8327 50.5538C24.3293 50.4784 23.4116 50.6611 22.0797 51.1017C20.6697 51.8784 19.2604 52.697 17.8518 53.5573C16.5254 54.3327 15.1998 55.1498 13.8748 56.0088C12.635 56.9501 11.3951 57.8914 10.1552 58.8327C8.99901 59.7726 7.75913 60.7139 6.43558 61.6566C6.271 61.8267 6.10712 62.0387 5.94393 62.2925C5.69568 62.464 5.40559 62.6362 5.07366 62.8091C4.65805 62.9834 4.24244 63.1577 3.82683 63.332C3.32755 63.5077 2.8227 63.3487 2.3123 62.855C1.88697 62.4435 1.71267 62.0279 1.7894 61.6082C1.78106 61.1061 1.94078 60.6431 2.26854 60.2191C2.92129 59.2039 3.57404 58.1887 4.22679 57.1734C4.79586 56.1596 5.40677 55.145 6.05951 54.1298C6.87823 53.0281 7.6551 51.9271 8.39014 50.8268C9.12517 49.7265 9.85952 48.5843 10.5932 47.4003C11.0032 46.8913 11.2877 46.3844 11.4468 45.8795C12.8401 44.0987 13.877 43.5374 14.5576 44.1957C15.319 44.6853 15.0881 45.9028 13.8649 47.8482C13.2945 48.7784 12.7658 49.7079 12.2791 50.6367C11.7909 51.4818 11.219 52.3283 10.5635 53.1761C10.318 53.515 9.86683 54.0666 9.20992 54.8308C8.553 55.595 7.97907 56.316 7.48812 56.9937C6.99578 57.5878 6.751 57.9685 6.75378 58.1359C6.67288 58.3046 7.12685 57.9204 8.1157 56.9833C9.93159 55.4465 11.8326 53.9921 13.8186 52.6199C15.8869 51.1627 17.9587 49.9146 20.034 48.8757C20.8638 48.4435 21.778 48.0516 22.7766 47.7003C23.8574 47.2638 24.8169 47.0805 25.6551 47.1503C26.5755 47.135 27.3335 47.4154 27.929 47.9914C28.6081 48.566 29.0425 49.5213 29.232 50.8574C29.4216 52.1935 29.1914 53.4528 28.5415 54.6354C27.8901 55.7343 27.282 56.9162 26.7171 58.1811C26.1577 59.7807 26.0091 60.9131 26.2713 61.5784C26.532 62.1599 27.4936 62.1021 29.1561 61.4049ZM80.808 53.6421C79.9028 54.5778 78.4963 55.5637 76.5884 56.5998C74.7641 57.6345 72.8932 58.377 70.9756 58.8274C69.1416 59.2763 67.5092 59.2616 66.0784 58.7831C64.6475 58.3047 63.914 56.9776 63.8779 54.802C63.8668 54.1326 63.8975 53.4625 63.9701 52.7917C64.0413 52.0372 64.1536 51.2402 64.307 50.4006C62.1537 51.7756 60.0421 53.1498 57.9724 54.5234C55.985 55.8119 53.9132 57.06 51.757 58.2676C51.2619 58.6943 50.6803 58.955 50.0123 59.0498C49.428 59.1432 48.8436 59.2366 48.2593 59.33C46.4225 59.6116 45.1165 59.0893 44.3412 57.7629C43.5658 56.4366 43.6684 55.0538 44.6489 53.6147C45.059 53.1056 45.4279 52.6392 45.7557 52.2152C46.0834 51.7913 46.4949 51.3659 46.99 50.9392C49.1337 48.9785 51.4948 47.5164 54.0736 46.5529C56.6523 45.5894 59.4499 45.2081 62.4665 45.4092C63.557 45.5584 64.4301 45.2092 65.0856 44.3613C65.6616 43.7658 66.1958 43.171 66.6882 42.5769C67.2642 41.9815 67.8402 41.386 68.4162 40.7906C68.5794 40.5367 68.7844 40.2822 69.0313 40.027C69.2781 39.7718 69.5264 39.6003 69.776 39.5125C70.0257 39.4246 70.3179 39.3779 70.6526 39.3724C71.071 39.3654 71.4071 39.4435 71.6609 39.6067C72.089 40.1855 72.2668 40.8103 72.1942 41.4811C72.1216 42.1519 71.8008 42.9943 71.2317 44.0081C70.989 44.5144 70.5043 45.5687 69.7776 47.171C69.0496 48.6897 68.4888 50.2056 68.0954 51.7188C67.7857 53.2305 67.8066 54.4857 68.158 55.4843C68.5079 56.3992 69.6404 56.5478 71.5552 55.9301C72.5552 55.6624 73.636 55.2259 74.7978 54.6207C75.9582 53.9319 77.1192 53.2848 78.281 52.6796C78.6129 52.5067 78.9449 52.3338 79.2768 52.1609C79.6073 51.9043 79.9825 51.8144 80.4023 51.8911C80.8234 52.0515 81.1212 52.3395 81.2955 52.7551C81.552 53.0857 81.3896 53.3813 80.808 53.6421ZM47.8223 55.6963C50.242 55.2377 52.7788 54.2748 55.4329 52.8079C58.0856 51.2572 60.2348 49.6312 61.8806 47.9299C59.373 48.1389 56.7497 48.9358 54.0106 50.3205C51.2714 51.7051 49.2087 53.4971 47.8223 55.6963ZM79.0303 24.6694C77.1099 24.9524 75.9356 24.8045 75.5075 24.2257C74.9957 23.6483 74.8214 23.2327 74.9846 22.9789C75.2287 22.5563 75.6826 22.1721 76.3465 21.8263C76.9253 21.3982 78.0947 21.2532 79.8547 21.3914C82.6202 21.5966 85.4673 21.6749 88.396 21.6262C91.4084 21.5762 94.3755 21.3177 97.2973 20.8507C97.5455 20.6792 97.7512 20.4665 97.9144 20.2127C99.0595 18.6034 99.9173 17.3337 100.488 16.4035C101.058 15.4733 101.588 14.6275 102.078 13.8661C102.567 13.1046 103.098 12.3007 103.67 11.4542C104.324 10.5226 105.224 9.25216 106.369 7.64285C106.611 7.13661 106.981 6.71197 107.478 6.36893C108.056 5.94081 108.6 5.93178 109.109 6.34184C109.279 6.50641 109.41 6.7972 109.5 7.2142C109.591 7.6312 109.639 8.00705 109.645 8.34176C109.567 8.67786 109.405 9.01535 109.159 9.35423C108.914 9.6931 108.709 9.98944 108.546 10.2433C107.647 11.5137 106.993 12.4453 106.584 13.0379C106.259 13.6292 105.934 14.2205 105.609 14.8118C105.284 15.4031 104.877 16.1213 104.389 16.9665C103.901 17.8116 103.044 19.1231 101.818 20.9012C103.581 21.2067 105.844 21.4203 108.608 21.5418C111.455 21.5782 114.51 21.5694 117.773 21.5152C121.035 21.3773 124.38 21.1962 127.808 20.9719C131.318 20.6625 134.661 20.3141 137.835 19.9266C139.84 19.7259 141.72 19.5273 143.475 19.3308C145.229 19.1342 146.693 19.0681 147.866 19.1323C149.96 19.2649 150.93 19.6673 150.773 20.3395C150.617 21.0117 149.664 21.5716 147.914 22.0192C146.412 22.2952 144.323 22.5391 141.648 22.751C139.057 22.9614 136.215 23.176 133.121 23.3947C130.027 23.5298 126.765 23.6677 123.335 23.8083C119.988 23.8639 116.767 23.9173 113.671 23.9687C110.657 23.9351 107.895 23.9391 105.384 23.9808C102.958 24.0211 101.074 24.0105 99.7342 23.949C98.3422 25.8135 96.8694 27.8468 95.3156 30.0488C93.8455 32.2494 92.3762 34.4919 90.9075 36.7762C89.5225 39.0591 88.2204 41.2988 87.0014 43.4952C85.781 45.608 84.7251 47.5506 83.8338 49.3231C83.1058 50.8418 82.3804 52.5279 81.6579 54.3813C80.934 56.151 80.4583 57.7492 80.2309 59.1759C80.0858 60.5175 80.3535 61.5175 81.034 62.1758C81.7132 62.7504 83.0499 62.6027 85.0443 61.7325C85.9592 61.3826 86.9968 60.8631 88.1572 60.1743C89.3175 59.4854 90.5191 58.754 91.7617 57.9801C93.003 57.1224 94.2024 56.2655 95.36 55.4093C96.5162 54.4694 97.5894 53.5727 98.5797 52.7193C98.9939 52.4613 99.3244 52.2047 99.5713 51.9495C99.8168 51.6106 100.147 51.354 100.563 51.1797C101.059 50.8367 101.474 50.6206 101.808 50.5313C102.223 50.357 102.644 50.5174 103.071 51.0126C103.414 51.5091 103.464 52.0104 103.222 52.5167C103.061 52.9378 102.775 53.3611 102.364 53.7864C101.87 54.2968 101.003 55.0227 99.7635 55.9639C98.5236 56.9052 97.0752 57.8918 95.4183 58.9237C93.8451 59.9543 92.1464 60.9869 90.3222 62.0216C88.5803 62.9712 86.9192 63.7521 85.3391 64.3642C82.5107 65.4156 80.5464 65.5737 79.4461 64.8387C78.2607 64.0214 77.613 62.8185 77.5029 61.23C77.3091 59.6429 77.4892 57.8822 78.043 55.9479C78.5967 54.0136 79.1547 52.3303 79.7168 50.8981C80.6821 48.5385 81.8146 46.176 83.1146 43.8108C84.4145 41.4457 85.757 39.1216 87.142 36.8387C88.6107 34.5544 90.0389 32.3545 91.4267 30.2389C92.8968 28.0383 94.2023 26.0078 95.3432 24.1475C92.5832 24.277 89.7396 24.4079 86.8123 24.5402C83.9672 24.5874 81.3732 24.6305 79.0303 24.6694ZM129.563 52.7071C128.326 53.8157 126.792 54.72 124.963 55.42C123.217 56.1186 121.507 56.5236 119.835 56.6351C118.247 56.7452 116.902 56.4327 115.802 55.6977C114.702 54.9626 114.178 53.674 114.231 51.8317C114.229 51.6643 114.185 51.5395 114.1 51.4572C114.097 51.2899 114.051 51.0395 113.961 50.7062C113.299 51.1357 112.72 51.5638 112.225 51.9905C111.73 52.4173 111.151 52.8454 110.489 53.2749C109.578 53.8759 108.71 54.5181 107.884 55.2014C107.057 55.801 106.145 56.3183 105.148 56.7534C104.318 57.1857 103.485 57.4088 102.648 57.4227C100.974 57.4504 100.124 56.6276 100.096 54.954C100.083 54.2009 100.197 53.4876 100.437 52.814C100.999 51.3818 101.731 50.0723 102.632 48.8855C103.533 47.6987 104.434 46.512 105.335 45.3252C106.243 44.5568 107.035 44.3763 107.711 44.7835C108.392 45.4418 108.406 46.2786 107.753 47.2939C107.346 47.9702 106.896 48.6054 106.403 49.1995C105.995 49.7922 105.545 50.4274 105.054 51.1052C104.81 51.5277 104.403 52.2459 103.834 53.2598C104.332 53.0004 104.707 52.8687 104.958 52.8645C105.291 52.7753 105.582 52.6449 105.83 52.4734C107.233 51.2783 108.637 50.125 110.041 49.0136C111.528 47.8171 112.973 46.6213 114.376 45.4262C114.708 45.2533 114.997 44.9974 115.242 44.6585C115.571 44.3182 115.944 44.061 116.359 43.8867C116.608 43.7151 116.941 43.6259 117.359 43.619C117.861 43.6106 118.281 43.6873 118.619 43.8491C119.63 44.2509 119.852 45.0423 119.286 46.2235C119.128 46.8121 118.929 47.4013 118.687 47.9912C118.528 48.496 118.369 49.0009 118.21 49.5057C117.818 51.1025 117.795 52.191 118.139 52.7712C118.567 53.35 119.2 53.6325 120.036 53.6186C120.873 53.6047 121.791 53.422 122.789 53.0707C123.788 52.7193 124.745 52.4104 125.662 52.1441C126.079 52.0535 126.62 51.8771 127.285 51.615C128.032 51.2677 128.657 51.0481 129.157 50.9561C129.742 50.8627 130.12 50.9401 130.291 51.1884C130.461 51.353 130.219 51.8592 129.563 52.7071ZM150.657 54.8679C149.652 54.8009 148.852 54.5631 148.26 54.1544C147.667 53.7457 147.156 53.2102 146.726 52.5477C146.381 51.8838 146.076 51.1774 145.812 50.4285C145.633 49.6782 145.453 48.9279 145.273 48.1775C144.751 47.0144 144.03 46.4405 143.11 46.4557C142.189 46.471 141.232 46.7799 140.238 47.3823C139.325 47.8996 138.458 48.5836 137.635 49.4343C136.812 50.285 136.153 50.9237 135.658 51.3504C132.77 53.8257 130.556 56.5827 129.016 59.6215C128.776 60.295 128.408 60.8452 127.913 61.2719C127.334 61.7 126.795 62.0019 126.296 62.1776C125.795 62.2696 125.376 62.1929 125.037 61.9474C124.614 61.7033 124.397 61.2048 124.384 60.4517C124.377 60.0333 124.455 59.6972 124.618 59.4434C124.782 59.1896 124.944 58.8939 125.106 58.5564C126.649 55.685 128.149 52.8143 129.608 49.9442C131.067 47.0742 132.568 44.2035 134.111 41.332C134.515 40.4883 135.047 39.7262 135.705 39.0457C135.87 38.8755 136.077 38.7465 136.326 38.6587C136.66 38.5695 136.911 38.6071 137.081 38.7717C137.673 39.0967 137.89 39.5534 137.732 40.142C137.742 40.7277 137.586 41.4417 137.265 42.2841C136.698 43.3816 136.172 44.4784 135.688 45.5746C135.204 46.6707 134.762 47.808 134.363 48.9864C135.024 48.4732 135.437 48.1316 135.602 47.9615C136.428 47.2781 137.17 46.6381 137.83 46.0412C138.572 45.3593 139.315 44.761 140.06 44.2465C141.05 43.393 142.172 42.8722 143.424 42.684C145.925 42.0566 147.572 42.95 148.365 45.3641C148.543 46.0307 148.679 46.6562 148.773 47.2406C148.866 47.8249 149.001 48.4086 149.178 48.9916C149.361 49.9092 149.664 50.532 150.088 50.8597C150.511 51.1038 151.223 51.1757 152.226 51.0753C152.645 51.0684 153.063 51.0614 153.481 51.0545C153.982 50.9625 154.442 50.913 154.86 50.906C156.03 50.8029 156.828 50.9571 157.253 51.3685C157.678 51.78 157.729 52.2813 157.404 52.8726C157.077 53.3802 156.332 53.853 155.167 54.2908C154.086 54.7273 152.583 54.9196 150.657 54.8679ZM190.512 51.8207C189.607 52.7565 188.2 53.7424 186.292 54.7785C184.468 55.8132 182.597 56.5557 180.68 57.006C178.846 57.455 177.213 57.4402 175.782 56.9618C174.351 56.4833 173.618 55.1563 173.582 52.9807C173.571 52.3113 173.601 51.6411 173.674 50.9703C173.745 50.2159 173.858 49.4188 174.011 48.5793C171.858 49.9542 169.746 51.3285 167.676 52.7021C165.689 53.9906 163.617 55.2386 161.461 56.4462C160.966 56.873 160.384 57.1337 159.716 57.2285C159.132 57.3219 158.548 57.4153 157.963 57.5087C156.126 57.7903 154.82 57.2679 154.045 55.9416C153.27 54.6153 153.372 53.2325 154.353 51.7933C154.763 51.2843 155.132 50.8178 155.46 50.3939C155.787 49.9699 156.199 49.5446 156.694 49.1179C158.838 47.1572 161.199 45.6951 163.777 44.7316C166.356 43.768 169.154 43.3868 172.17 43.5878C173.261 43.7371 174.134 43.3878 174.79 42.5399C175.366 41.9445 175.9 41.3497 176.392 40.7556C176.968 40.1601 177.544 39.5647 178.12 38.9692C178.283 38.7154 178.488 38.4609 178.735 38.2057C178.982 37.9505 179.23 37.779 179.48 37.6911C179.73 37.6033 180.022 37.5566 180.357 37.551C180.775 37.5441 181.111 37.6222 181.365 37.7854C181.793 38.3642 181.971 38.989 181.898 39.6598C181.826 40.3306 181.505 41.1729 180.936 42.1868C180.693 42.693 180.208 43.7473 179.482 45.3497C178.753 46.8684 178.193 48.3843 177.799 49.8974C177.49 51.4092 177.511 52.6644 177.862 53.6629C178.212 54.5778 179.344 54.7264 181.259 54.1087C182.259 53.841 183.34 53.4046 184.502 52.7994C185.662 52.1105 186.823 51.4635 187.985 50.8583C188.317 50.6854 188.649 50.5125 188.981 50.3396C189.311 50.083 189.686 49.993 190.106 50.0698C190.527 50.2302 190.825 50.5182 190.999 50.9338C191.256 51.2643 191.093 51.56 190.512 51.8207ZM157.526 53.875C159.946 53.4163 162.483 52.4535 165.137 50.9865C167.79 49.4359 169.939 47.8099 171.584 46.1086C169.077 46.3176 166.454 47.1144 163.714 48.4991C160.975 49.8838 158.913 51.6758 157.526 53.875ZM191.631 68.7515C194.263 65.9457 196.892 62.9725 199.518 59.832C202.228 56.6901 204.652 54.0133 206.792 51.8016C208.93 49.5062 210.338 48.6039 211.016 49.0949C211.694 49.5858 210.968 51.2719 208.84 54.153C206.794 56.9491 204.535 59.5395 202.064 61.9241C199.674 64.2237 197.286 66.5651 194.898 68.9484C194.24 69.6289 193.538 70.2264 192.794 70.741C192.049 71.2556 191.346 71.7694 190.685 72.2826C190.353 72.4555 189.98 72.671 189.566 72.929C189.15 73.1033 188.734 73.2776 188.319 73.4519C186.736 73.8966 185.478 73.7501 184.545 73.0123C183.612 72.2745 183.049 71.112 182.855 69.525C182.665 68.1889 182.769 66.8898 183.167 65.6277C183.782 62.3532 184.735 59.2404 186.025 56.2895C187.232 53.34 188.564 50.3883 190.021 47.4346C190.504 46.2548 191.072 45.1991 191.726 44.2675C192.132 43.5075 192.455 42.7907 192.695 42.1171C192.934 41.3598 192.713 40.6521 192.032 39.9938C192.275 39.4875 192.478 39.1493 192.643 38.9792C194.222 38.2834 195.418 37.2591 196.233 35.9064C197.131 34.5523 198.03 33.24 198.93 31.9695C201.299 28.4985 203.67 25.0693 206.041 21.6819C208.411 18.2108 211.035 14.9866 213.915 12.0093C214.903 10.9885 215.975 10.0082 217.131 9.06825C217.54 8.47556 218.284 7.961 219.365 7.52455C219.947 7.26379 220.53 7.08671 221.114 6.99331C221.698 6.89991 222.287 7.05754 222.88 7.4662C223.474 7.95854 223.776 8.53942 223.787 9.20884C223.881 9.79319 223.765 10.381 223.44 10.9723C223.037 11.8997 222.592 12.8278 222.105 13.7566C221.701 14.6003 221.213 15.4454 220.641 16.2919C218.021 19.8508 215.189 23.204 212.145 26.3515C209.099 29.4153 205.926 32.4393 202.628 35.4236C201.639 36.3607 200.693 37.339 199.789 38.3584C198.885 39.3778 198.025 40.4802 197.207 41.6655C195.584 44.7057 194.002 47.7452 192.462 50.784C190.921 53.7391 189.549 56.8169 188.347 60.0175C188.03 61.1108 187.755 62.2035 187.522 63.2955C187.206 64.3888 186.931 65.4815 186.698 66.5735C186.303 68.003 186.278 69.0078 186.623 69.588C186.883 70.1695 187.307 70.4555 187.892 70.4457C188.478 70.436 189.103 70.2582 189.767 69.9124C190.514 69.5652 191.136 69.1782 191.631 68.7515ZM217.338 13.9613C216.597 14.7269 215.405 16.0022 213.76 17.7872C212.198 19.4871 210.597 21.3551 208.957 23.3912C207.317 25.4272 205.842 27.3768 204.534 29.2399C203.226 31.1031 202.496 32.4962 202.344 33.4195C203.002 32.7389 204.03 31.6338 205.427 30.104C206.909 28.5728 208.429 26.9154 209.99 25.1317C211.635 23.3467 213.195 21.5631 214.672 19.7809C216.233 17.9973 217.464 16.5121 218.365 15.3253C219.264 14.0549 219.67 13.253 219.58 12.9197C219.573 12.5013 218.826 12.8485 217.338 13.9613ZM240.049 55.7692C240.954 54.8335 241.86 53.9396 242.767 53.0876C243.673 52.2355 244.621 51.3409 245.61 50.4038C247.338 48.6174 249.153 46.997 251.054 45.5425C252.953 44.0043 254.979 42.506 257.131 41.0473C258.043 40.53 258.915 40.097 259.746 39.7484C260.495 39.4849 261.204 39.3475 261.873 39.3364C262.543 39.3253 263.217 39.6071 263.896 40.1817C264.575 40.7563 264.921 41.3783 264.932 42.0478C265.026 42.7158 264.996 43.4277 264.842 44.1836C264.684 44.7721 264.484 45.3195 264.241 45.8258C264.082 46.3306 263.924 46.9191 263.768 47.5913C264.608 47.7448 265.238 47.9017 265.659 48.0621L270.052 47.9892C270.471 47.9822 270.805 47.9767 271.056 47.9725C271.307 47.9683 271.643 48.0046 272.063 48.0814C273.238 48.3129 273.752 49.0159 273.604 50.1901C273.367 51.0311 272.705 51.4606 271.617 51.4786C270.444 51.4144 269.23 51.3927 267.975 51.4135C266.72 51.4344 265.505 51.3708 264.331 51.2229C263.241 51.1573 262.281 51.2988 261.45 51.6474C260.617 51.9123 259.79 52.512 258.969 53.4463C258.069 54.7168 256.958 55.8652 255.636 56.8915C254.314 57.9179 252.862 58.6953 251.281 59.2237C248.118 60.2807 246.174 59.183 245.451 55.9307C245.448 55.7633 245.403 55.5966 245.317 55.4307C245.23 55.2647 245.142 54.9732 245.051 54.5562C244.145 55.4083 243.28 56.2597 242.457 57.1103C241.716 57.8759 240.976 58.6415 240.235 59.4071C239.33 60.3428 238.425 61.2786 237.52 62.2143C236.615 63.15 235.709 64.0858 234.804 65.0215C234.474 65.2781 234.142 65.4929 233.811 65.6658C233.394 65.7564 232.932 65.6803 232.426 65.4377C232.003 65.1936 231.747 64.863 231.656 64.446C231.565 64.029 231.642 63.6093 231.886 63.1867C232.286 62.0919 232.688 61.0809 233.091 60.1535C233.494 59.2261 233.98 58.2555 234.55 57.2416C235.605 55.299 236.662 53.3982 237.719 51.5392C238.775 49.5966 239.789 47.6546 240.761 45.7134C241.004 45.2071 241.248 44.7846 241.493 44.4457C241.821 44.0218 241.812 43.4779 241.466 42.814C241.457 42.2283 241.618 41.8489 241.95 41.676C243.604 40.4767 244.879 39.1164 245.774 37.5949C246.752 35.9884 247.771 34.3811 248.833 32.7732C251.2 29.1348 253.61 25.5794 256.063 22.1069C258.516 18.6345 261.18 15.2422 264.055 11.9302C264.876 10.9958 265.699 10.1033 266.522 9.25266C267.428 8.40061 268.376 7.50602 269.365 6.56889C269.777 6.22724 270.149 5.92812 270.48 5.67153C270.81 5.41494 271.225 5.1988 271.724 5.02311C272.141 4.93249 272.56 4.92554 272.98 5.00227C273.399 5.079 273.779 5.24011 274.118 5.48558C274.622 5.6446 274.921 5.97444 275.013 6.47512C275.105 6.9758 275.071 7.43672 274.91 7.85788C274.426 8.95402 273.942 10.0083 273.456 11.0208C273.054 12.0319 272.527 13.0032 271.872 13.9347C270.234 16.0545 268.594 18.1323 266.954 20.1684C265.312 22.1208 263.629 24.0738 261.904 26.0276C260.097 28.1501 258.206 30.1903 256.23 32.1482C254.337 34.1047 252.403 36.1038 250.429 38.1454C248.95 39.8439 247.599 41.6241 246.374 43.4858C245.314 45.1774 244.297 46.9102 243.322 48.6841C242.347 50.458 241.33 52.2326 240.271 54.0078C240.108 54.2617 240.028 54.5141 240.033 54.7651C240.037 55.0161 239.957 55.2686 239.794 55.5224C239.796 55.6061 239.838 55.6472 239.922 55.6458L240.049 55.7692ZM252.484 48.532C253.236 48.4358 253.988 48.3814 254.741 48.3689C255.577 48.2714 256.413 48.2156 257.25 48.2017C258.586 48.0122 259.622 47.409 260.358 46.3924C261.177 45.2907 261.491 44.03 261.3 42.6103C259.467 43.1429 257.849 43.9649 256.444 45.0763C255.039 46.1041 253.719 47.256 252.484 48.532ZM255.304 52.0006C253.462 51.9474 252.002 52.2646 250.925 52.9521C249.849 53.6396 249.321 54.6109 249.342 55.8661C250.512 55.7629 251.635 55.3676 252.712 54.6802C253.789 53.9927 254.653 53.0995 255.304 52.0006ZM264.64 16.9425C264.558 17.0275 264.188 17.4522 263.532 18.2164C262.875 18.9806 262.095 19.9143 261.193 21.0173C260.373 22.0354 259.47 23.1384 258.485 24.3266C257.501 25.5148 256.599 26.6597 255.78 27.7614C255.044 28.778 254.472 29.6245 254.065 30.3009C253.658 30.9772 253.538 31.3559 253.707 31.4368C254.775 30.2472 256.254 28.5905 258.144 26.4666C260.033 24.2591 261.962 22.009 263.933 19.7163C265.904 17.4237 267.669 15.3437 269.228 13.4764C270.871 11.6078 271.896 10.3352 272.304 9.65887C272.795 8.98111 272.504 9.15333 271.433 10.1755C270.361 11.114 268.096 13.3697 264.64 16.9425ZM296.907 48.4222C297.322 48.2479 297.697 48.1161 298.03 48.0269C298.362 47.854 298.736 47.6804 299.151 47.5061C300.153 47.322 300.869 47.6031 301.3 48.3493C301.735 49.3464 301.496 50.0619 300.582 50.4955C297.512 52.1368 294.311 53.4036 290.978 54.296C287.645 55.1883 284.306 55.7459 280.962 55.9689C279.791 56.072 278.536 56.0928 277.196 56.0314C275.94 55.9685 274.763 55.6951 273.667 55.2111C272.655 54.7257 271.89 54.027 271.372 53.1148C270.854 52.119 270.79 50.7809 271.18 49.1004C271.738 47.4171 272.263 46.2366 272.753 45.5589C273.244 44.8811 274.195 44.1539 275.605 43.3772C277.1 42.6827 278.64 42.1968 280.226 41.9194C281.894 41.5569 283.481 41.3632 284.987 41.3381C286.413 41.4819 287.261 42.1792 287.533 43.4302C287.806 44.7649 287.363 45.7767 286.202 46.4655C285.374 46.9815 284.503 47.4563 283.59 47.89C282.675 48.24 281.718 48.5907 280.719 48.942C279.969 49.1219 279.176 49.2606 278.341 49.3582C277.505 49.4558 276.669 49.5115 275.833 49.5254C274.577 49.5462 273.871 49.8509 273.713 50.4394C273.638 50.9429 273.898 51.4826 274.494 52.0586C275.344 52.8815 276.816 53.3174 278.91 53.3664C281.001 53.3316 283.216 53.1275 285.554 52.7539C287.973 52.2952 290.223 51.6719 292.302 50.8841C294.465 50.0949 296 49.2742 296.907 48.4222ZM284.169 44.9927C284.742 44.2299 284.736 43.8533 284.15 43.8631C283.647 43.7877 282.854 43.9264 281.772 44.2792C280.773 44.6306 279.61 45.1521 278.282 45.8437C276.955 46.5354 275.794 47.2242 274.801 47.9103C276.059 48.0569 277.688 47.8624 279.688 47.327C281.687 46.7079 283.18 45.9298 284.169 44.9927ZM333.066 49.454C332.161 50.3898 330.754 51.3757 328.846 52.4117C327.022 53.4464 325.151 54.189 323.233 54.6393C321.399 55.0882 319.767 55.0735 318.336 54.595C316.905 54.1166 316.172 52.7896 316.136 50.614C316.125 49.9445 316.155 49.2744 316.228 48.6036C316.299 47.8491 316.411 47.0521 316.565 46.2126C314.411 47.5875 312.3 48.9618 310.23 50.3354C308.243 51.6239 306.171 52.8719 304.015 54.0795C303.52 54.5062 302.938 54.767 302.27 54.8618C301.686 54.9552 301.101 55.0486 300.517 55.142C298.68 55.4236 297.374 54.9012 296.599 53.5749C295.824 52.2485 295.926 50.8658 296.907 49.4266C297.317 48.9176 297.686 48.4511 298.013 48.0272C298.341 47.6032 298.753 47.1779 299.248 46.7512C301.391 44.7905 303.753 43.3284 306.331 42.3648C308.91 41.4013 311.708 41.0201 314.724 41.2211C315.815 41.3704 316.688 41.0211 317.343 40.1732C317.919 39.5777 318.454 38.983 318.946 38.3889C319.522 37.7934 320.098 37.198 320.674 36.6025C320.837 36.3487 321.042 36.0942 321.289 35.839C321.536 35.5838 321.784 35.4123 322.034 35.3244C322.283 35.2366 322.576 35.1899 322.91 35.1843C323.329 35.1774 323.665 35.2555 323.919 35.4187C324.347 35.9975 324.525 36.6223 324.452 37.2931C324.379 37.9639 324.059 38.8062 323.49 39.8201C323.247 40.3263 322.762 41.3806 322.035 42.983C321.307 44.5017 320.747 46.0176 320.353 47.5307C320.044 49.0425 320.064 50.2976 320.416 51.2962C320.766 52.2111 321.898 52.3597 323.813 51.742C324.813 51.4743 325.894 51.0379 327.056 50.4327C328.216 49.7438 329.377 49.0968 330.539 48.4916C330.871 48.3187 331.203 48.1458 331.535 47.9728C331.865 47.7163 332.24 47.6263 332.66 47.7031C333.081 47.8635 333.379 48.1515 333.553 48.5671C333.81 48.8976 333.647 49.1933 333.066 49.454ZM300.08 51.5083C302.5 51.0496 305.037 50.0868 307.691 48.6198C310.343 47.0692 312.493 45.4432 314.138 43.7418C311.631 43.9509 309.007 44.7477 306.268 46.1324C303.529 47.5171 301.466 49.309 300.08 51.5083ZM359.757 48.8853C358.52 49.994 356.987 50.8983 355.157 51.5983C353.411 52.2969 351.702 52.7019 350.03 52.8134C348.441 52.9234 347.097 52.6109 345.996 51.8759C344.896 51.1409 344.373 49.8522 344.426 48.0099C344.423 47.8426 344.379 47.7177 344.294 47.6355C344.291 47.4681 344.245 47.2178 344.156 46.8844C343.493 47.3139 342.915 47.7421 342.42 48.1688C341.924 48.5955 341.346 49.0236 340.683 49.4531C339.772 50.0541 338.904 50.6963 338.079 51.3796C337.251 51.9792 336.339 52.4966 335.342 52.9317C334.512 53.3639 333.679 53.587 332.842 53.6009C331.169 53.6287 330.318 52.8058 330.29 51.1323C330.278 50.3792 330.392 49.6658 330.631 48.9922C331.194 47.56 331.925 46.2505 332.826 45.0637C333.727 43.877 334.628 42.6902 335.529 41.5034C336.437 40.7351 337.229 40.5545 337.906 40.9618C338.586 41.6201 338.6 42.4569 337.947 43.4721C337.54 44.1485 337.09 44.7837 336.598 45.3778C336.189 45.9705 335.739 46.6057 335.248 47.2834C335.004 47.706 334.598 48.4242 334.029 49.438C334.527 49.1787 334.901 49.0469 335.152 49.0427C335.485 48.9535 335.776 48.8231 336.024 48.6516C337.428 47.4565 338.831 46.3032 340.236 45.1918C341.722 43.9953 343.167 42.7995 344.57 41.6044C344.902 41.4315 345.191 41.1756 345.437 40.8367C345.766 40.4965 346.138 40.2392 346.554 40.0649C346.802 39.8934 347.135 39.8041 347.554 39.7972C348.056 39.7889 348.475 39.8656 348.813 40.0274C349.824 40.4291 350.046 41.2206 349.48 42.4018C349.323 42.9903 349.123 43.5795 348.882 44.1694C348.723 44.6743 348.564 45.1791 348.405 45.6839C348.013 47.2808 347.989 48.3693 348.333 48.9494C348.761 49.5282 349.394 49.8107 350.231 49.7968C351.067 49.7829 351.985 49.6003 352.984 49.2489C353.982 48.8975 354.94 48.5887 355.856 48.3224C356.273 48.2317 356.814 48.0553 357.479 47.7932C358.227 47.446 358.851 47.2264 359.352 47.1344C359.936 47.041 360.314 47.1184 360.485 47.3666C360.656 47.5312 360.413 48.0374 359.757 48.8853ZM358.867 20.0235C356.947 20.3065 355.773 20.1585 355.344 19.5798C354.833 19.0023 354.658 18.5867 354.822 18.3329C355.066 17.9104 355.52 17.5262 356.183 17.1804C356.762 16.7522 357.932 16.6073 359.692 16.7455C362.457 16.9507 365.304 17.0289 368.233 16.9803C371.245 16.9303 374.212 16.6718 377.134 16.2048C377.382 16.0333 377.588 15.8206 377.751 15.5668C378.896 13.9575 379.754 12.6877 380.325 11.7575C380.895 10.8274 381.425 9.98156 381.915 9.22012C382.404 8.45869 382.935 7.65473 383.507 6.80823C384.161 5.87667 385.061 4.60623 386.206 2.99691C386.448 2.49067 386.818 2.06603 387.315 1.72299C387.893 1.29488 388.437 1.28585 388.946 1.6959C389.116 1.86048 389.247 2.15127 389.337 2.56826C389.428 2.98526 389.476 3.36111 389.482 3.69582C389.403 4.03192 389.242 4.36941 388.996 4.70829C388.751 5.04716 388.546 5.3435 388.383 5.59732C387.484 6.86776 386.829 7.79932 386.421 8.39201C386.096 8.98331 385.771 9.57461 385.446 10.1659C385.121 10.7572 384.714 11.4754 384.226 12.3205C383.738 13.1656 382.881 14.4772 381.655 16.2553C383.418 16.5608 385.681 16.7743 388.445 16.8958C391.292 16.9323 394.347 16.9234 397.61 16.8692C400.872 16.7314 404.217 16.5503 407.645 16.326C411.155 16.0166 414.498 15.6682 417.672 15.2807C419.677 15.08 421.557 14.8814 423.312 14.6848C425.066 14.4883 426.53 14.4221 427.703 14.4864C429.797 14.619 430.767 15.0214 430.61 15.6936C430.454 16.3658 429.501 16.9257 427.751 17.3732C426.249 17.6493 424.16 17.8932 421.485 18.105C418.894 18.3154 416.052 18.53 412.958 18.7488C409.864 18.8839 406.602 19.0217 403.172 19.1624C399.825 19.2179 396.604 19.2714 393.508 19.3228C390.494 19.2891 387.732 19.2932 385.221 19.3348C382.795 19.3751 380.911 19.3645 379.571 19.3031C378.179 21.1676 376.706 23.2009 375.153 25.4029C373.683 27.6035 372.213 29.8459 370.744 32.1302C369.359 34.4131 368.057 36.6528 366.838 38.8493C365.618 40.962 364.562 42.9047 363.671 44.6772C362.943 46.1959 362.217 47.8819 361.495 49.7353C360.771 51.5051 360.295 53.1033 360.068 54.53C359.923 55.8716 360.19 56.8715 360.871 57.5298C361.55 58.1045 362.887 57.9567 364.881 57.0866C365.796 56.7366 366.834 56.2172 367.994 55.5283C369.155 54.8394 370.356 54.108 371.599 53.3341C372.84 52.4765 374.039 51.6196 375.197 50.7634C376.353 49.8235 377.426 48.9268 378.417 48.0733C378.831 47.8154 379.161 47.5588 379.408 47.3036C379.654 46.9647 379.984 46.7081 380.4 46.5338C380.896 46.1908 381.311 45.9746 381.645 45.8854C382.06 45.7111 382.481 45.8715 382.908 46.3666C383.251 46.8631 383.301 47.3645 383.059 47.8707C382.898 48.2919 382.612 48.7151 382.201 49.1405C381.707 49.6509 380.84 50.3767 379.6 51.318C378.361 52.2593 376.912 53.2459 375.255 54.2778C373.682 55.3083 371.983 56.3409 370.159 57.3756C368.417 58.3253 366.756 59.1061 365.176 59.7183C362.348 60.7696 360.383 60.9278 359.283 60.1928C358.098 59.3754 357.45 58.1725 357.34 56.5841C357.146 54.997 357.326 53.2363 357.88 51.302C358.434 49.3677 358.992 47.6844 359.554 46.2522C360.519 43.8925 361.652 41.5301 362.952 39.1649C364.251 36.7997 365.594 34.4757 366.979 32.1928C368.448 29.9085 369.876 27.7085 371.264 25.593C372.734 23.3924 374.039 21.3619 375.18 19.5015C372.42 19.6311 369.577 19.762 366.649 19.8943C363.804 19.9415 361.21 19.9846 358.867 20.0235ZM398.189 53.3949C398.771 53.1341 399.227 52.9173 399.559 52.7444C399.891 52.5714 400.222 52.3567 400.553 52.1001C402.129 51.2369 403.663 50.3745 405.155 49.5127C406.648 48.6509 408.182 47.7884 409.758 46.9253C410.586 46.4093 411.461 46.1437 412.381 46.1284C412.716 46.1228 413.053 46.2428 413.391 46.4883C413.73 46.7338 413.985 46.9388 414.155 47.1034C414.586 47.8495 414.263 48.5663 413.186 49.2538C412.358 49.7698 411.487 50.2446 410.573 50.6782C409.66 51.1119 408.748 51.6292 407.837 52.2303C405.685 53.6889 403.533 55.1475 401.381 56.6062C399.228 57.9811 397.075 59.3979 394.923 60.8566C393.599 61.7992 392.53 62.9051 391.714 64.1742C390.898 65.4432 390.04 66.713 389.14 67.9834C386.613 72.043 383.999 75.9366 381.299 79.6642C378.515 83.3933 375.478 87.001 372.188 90.4873C370.788 91.8498 369.343 93.0456 367.853 94.0747C367.358 94.5014 366.862 94.8445 366.364 95.1038C365.784 95.4483 365.16 95.7097 364.494 95.8882C363.576 96.0708 362.778 95.9167 362.1 95.4257C361.423 94.9348 361.158 94.144 361.308 93.0534C361.291 92.0493 361.567 91.0403 362.136 90.0264C363.268 87.5803 364.653 85.3393 366.293 83.3032C367.85 81.2686 369.575 79.3148 371.469 77.442C374.27 74.7171 377.071 72.034 379.873 69.3928C382.674 66.6679 385.516 63.9423 388.4 61.216C388.81 60.7069 389.22 60.1979 389.63 59.6889C390.123 59.0949 390.573 58.5015 390.982 57.9088C392.368 55.7096 393.712 53.4692 395.014 51.1877C396.313 48.8225 397.655 46.4566 399.039 44.09C398.369 44.1011 397.828 44.2775 397.416 44.6192C397.085 44.8757 396.754 45.1323 396.424 45.3889C394.936 46.5017 393.406 47.6152 391.834 48.7294C390.344 49.7586 388.685 50.6231 386.855 51.3231C386.276 51.7512 385.736 51.9694 385.234 51.9778C383.564 52.2566 382.262 51.9853 381.328 51.1638C380.392 50.2586 380.12 48.9658 380.51 47.2853C380.748 46.4443 381.027 45.6445 381.349 44.8859C381.672 44.1272 382.036 43.3679 382.442 42.6078C383.092 41.4252 383.742 40.2845 384.394 39.1856C385.129 38.0853 385.864 36.985 386.599 35.8846C387.009 35.3756 387.463 35.0333 387.963 34.8576C388.461 34.5982 389.05 34.7977 389.73 35.456C389.569 35.7935 389.407 36.1728 389.247 36.594C389.169 36.9301 388.965 37.2683 388.636 37.6085C387.99 39.0422 387.301 40.3928 386.569 41.6605C385.837 42.9281 385.105 44.2376 384.374 45.589C384.214 46.0101 384.054 46.4731 383.895 46.978C383.82 47.4814 383.62 48.0706 383.297 48.7456C383.963 48.5672 384.506 48.4745 384.924 48.4675C385.426 48.4592 385.885 48.3679 386.301 48.1935C387.461 47.5047 388.58 46.8165 389.656 46.129C390.733 45.4416 391.809 44.7122 392.884 43.9411C394.289 42.8297 395.61 41.7196 396.847 40.611C398.084 39.5023 399.404 38.3505 400.807 37.1554C401.301 36.645 401.838 36.2594 402.42 35.9986C403 35.6542 403.712 35.6842 404.556 36.0887C405.738 36.7387 405.803 38.1187 404.75 40.2287C403.86 42.0848 402.928 43.9417 401.955 45.7993C400.981 47.6569 400.05 49.5556 399.162 51.4954C398.997 51.6656 398.833 51.8776 398.67 52.1314C398.591 52.3838 398.43 52.8049 398.189 53.3949ZM380.574 73.7754C379.171 74.9705 377.728 76.3337 376.247 77.8649C374.682 79.3974 373.243 80.928 371.929 82.4564C370.615 83.9848 369.467 85.4268 368.486 86.7823C367.504 88.1378 366.852 89.2367 366.531 90.079C367.36 89.5631 368.475 88.6657 369.877 87.3869C371.195 86.1095 372.552 84.6641 373.948 83.0506C375.26 81.4385 376.531 79.8271 377.76 78.2164C378.987 76.522 379.925 75.0417 380.574 73.7754Z" fill="#F2EDE7"/>
</svg>
