 <svg width="51" height="51" viewBox="0 0 51 51" fill="none" xmlns="http://www.w3.org/2000/svg">
    <path
      d="M40.0687 26.6431L28.7703 22.4869C28.7133 22.4651 28.6615 22.4317 28.6181 22.3888C28.5748 22.3458 28.5409 22.2943 28.5187 22.2375L24.3625 10.9369C24.147 10.3527 23.7576 9.84858 23.2468 9.49252C22.736 9.13647 22.1283 8.94558 21.5056 8.94558C20.8829 8.94558 20.2752 9.13647 19.7644 9.49252C19.2536 9.84858 18.8642 10.3527 18.6487 10.9369L14.4925 22.2353C14.4707 22.2923 14.4373 22.3441 14.3944 22.3875C14.3514 22.4308 14.2999 22.4646 14.2431 22.4869L2.94247 26.6431C2.35827 26.8586 1.85417 27.248 1.49812 27.7588C1.14206 28.2696 0.951172 28.8773 0.951172 29.5C0.951172 30.1227 1.14206 30.7304 1.49812 31.2412C1.85417 31.752 2.35827 32.1414 2.94247 32.3569L14.2409 36.5131C14.2979 36.5349 14.3497 36.5683 14.3931 36.6112C14.4364 36.6542 14.4702 36.7057 14.4925 36.7625L18.6487 48.0631C18.8642 48.6473 19.2536 49.1514 19.7644 49.5075C20.2752 49.8635 20.8829 50.0544 21.5056 50.0544C22.1283 50.0544 22.736 49.8635 23.2468 49.5075C23.7576 49.1514 24.147 48.6473 24.3625 48.0631L28.5187 36.7647C28.5405 36.7077 28.5739 36.6559 28.6168 36.6125C28.6598 36.5692 28.7113 36.5354 28.7681 36.5131L40.0687 32.3569C40.6529 32.1414 41.157 31.752 41.5131 31.2412C41.8691 30.7304 42.06 30.1227 42.06 29.5C42.06 28.8773 41.8691 28.2696 41.5131 27.7588C41.157 27.248 40.6529 26.8586 40.0687 26.6431ZM39.1609 29.8937L27.8603 34.05C27.4467 34.2028 27.0712 34.4435 26.7597 34.7554C26.4481 35.0674 26.2079 35.4431 26.0556 35.8569L21.8993 47.1553C21.8695 47.2357 21.8158 47.305 21.7454 47.354C21.675 47.4029 21.5913 47.4292 21.5056 47.4292C21.4199 47.4292 21.3362 47.4029 21.2658 47.354C21.1954 47.305 21.1417 47.2357 21.1118 47.1553L16.9556 35.8547C16.8022 35.4418 16.5616 35.0668 16.2502 34.7554C15.9388 34.4439 15.5638 34.2033 15.1509 34.05L3.85247 29.8937C3.77209 29.8639 3.70277 29.8102 3.65381 29.7398C3.60486 29.6694 3.57862 29.5857 3.57862 29.5C3.57862 29.4143 3.60486 29.3306 3.65381 29.2602C3.70277 29.1898 3.77209 29.1361 3.85247 29.1062L15.1531 24.95C15.5666 24.7972 15.9421 24.5565 16.2537 24.2446C16.5653 23.9326 16.8055 23.5569 16.9578 23.1431L21.114 11.8447C21.1439 11.7643 21.1976 11.695 21.268 11.646C21.3384 11.5971 21.422 11.5708 21.5078 11.5708C21.5935 11.5708 21.6772 11.5971 21.7476 11.646C21.818 11.695 21.8717 11.7643 21.9015 11.8447L26.0578 23.1453C26.2106 23.5589 26.4513 23.9344 26.7632 24.2459C27.0751 24.5575 27.4509 24.7977 27.8647 24.95L39.1631 29.1062C39.2435 29.1361 39.3128 29.1898 39.3617 29.2602C39.4107 29.3306 39.4369 29.4143 39.4369 29.5C39.4369 29.5857 39.4107 29.6694 39.3617 29.7398C39.3128 29.8102 39.2435 29.8639 39.1631 29.8937H39.1609ZM28.9365 6.75C28.9365 6.4019 29.0748 6.06806 29.321 5.82192C29.5671 5.57578 29.9009 5.4375 30.249 5.4375H34.1865V1.5C34.1865 1.1519 34.3248 0.818064 34.571 0.571922C34.8171 0.325781 35.1509 0.1875 35.499 0.1875C35.8471 0.1875 36.181 0.325781 36.4271 0.571922C36.6733 0.818064 36.8115 1.1519 36.8115 1.5V5.4375H40.749C41.0971 5.4375 41.431 5.57578 41.6771 5.82192C41.9233 6.06806 42.0615 6.4019 42.0615 6.75C42.0615 7.0981 41.9233 7.43194 41.6771 7.67808C41.431 7.92422 41.0971 8.0625 40.749 8.0625H36.8115V12C36.8115 12.3481 36.6733 12.6819 36.4271 12.9281C36.181 13.1742 35.8471 13.3125 35.499 13.3125C35.1509 13.3125 34.8171 13.1742 34.571 12.9281C34.3248 12.6819 34.1865 12.3481 34.1865 12V8.0625H30.249C29.9009 8.0625 29.5671 7.92422 29.321 7.67808C29.0748 7.43194 28.9365 7.0981 28.9365 6.75ZM50.8115 17.25C50.8115 17.5981 50.6733 17.9319 50.4271 18.1781C50.181 18.4242 49.8471 18.5625 49.499 18.5625H47.3115V20.75C47.3115 21.0981 47.1733 21.4319 46.9271 21.6781C46.681 21.9242 46.3471 22.0625 45.999 22.0625C45.6509 22.0625 45.3171 21.9242 45.071 21.6781C44.8248 21.4319 44.6865 21.0981 44.6865 20.75V18.5625H42.499C42.1509 18.5625 41.8171 18.4242 41.571 18.1781C41.3248 17.9319 41.1865 17.5981 41.1865 17.25C41.1865 16.9019 41.3248 16.5681 41.571 16.3219C41.8171 16.0758 42.1509 15.9375 42.499 15.9375H44.6865V13.75C44.6865 13.4019 44.8248 13.0681 45.071 12.8219C45.3171 12.5758 45.6509 12.4375 45.999 12.4375C46.3471 12.4375 46.681 12.5758 46.9271 12.8219C47.1733 13.0681 47.3115 13.4019 47.3115 13.75V15.9375H49.499C49.8471 15.9375 50.181 16.0758 50.4271 16.3219C50.6733 16.5681 50.8115 16.9019 50.8115 17.25Z"
      fill="#000000"
    />
  </svg>