<svg width="48" height="48" viewBox="0 0 48 48" fill="none" xmlns="http://www.w3.org/2000/svg">
<path d="M47.0611 14.4997C47.061 11.8179 46.2659 9.19627 44.7761 6.96624C43.2864 4.73622 41.169 2.99791 38.6915 1.97106C36.2141 0.944204 33.4878 0.6749 30.8573 1.19719C28.2268 1.71947 25.8102 3.0099 23.9129 4.90536L8.58293 20.0582C8.29798 20.3421 8.07203 20.6797 7.9181 21.0514C7.76418 21.423 7.68531 21.8215 7.68606 22.2238V38.4572L1.07106 45.0722C0.942108 45.1924 0.838679 45.3373 0.766943 45.4983C0.695207 45.6593 0.656634 45.8331 0.653525 46.0093C0.650415 46.1856 0.682833 46.3606 0.748845 46.524C0.814857 46.6875 0.91311 46.8359 1.03774 46.9606C1.16238 47.0852 1.31084 47.1834 1.47426 47.2495C1.63769 47.3155 1.81274 47.3479 1.98897 47.3448C2.1652 47.3417 2.339 47.3031 2.5 47.2314C2.661 47.1596 2.8059 47.0562 2.92606 46.9272L9.54106 40.3122H25.7745C26.1768 40.313 26.5753 40.2341 26.9469 40.0802C27.3186 39.9263 27.6562 39.7003 27.9401 39.4154L42.9967 24.1838L43.082 24.0963C44.3473 22.8396 45.3505 21.3442 46.0335 19.6969C46.7166 18.0496 47.0658 16.283 47.0611 14.4997ZM25.7636 6.76474C27.7925 4.75239 30.5285 3.61404 33.386 3.59324C36.2436 3.57243 38.9959 4.67082 41.0539 6.6534C43.1119 8.63598 44.3123 11.3453 44.3982 14.2017C44.4841 17.058 43.4487 19.8346 41.5136 21.9372H27.9161L36.1761 13.6772C36.4079 13.4284 36.5341 13.0993 36.5281 12.7593C36.5221 12.4193 36.3844 12.0949 36.1439 11.8544C35.9034 11.6139 35.579 11.4762 35.239 11.4702C34.8989 11.4642 34.5699 11.5904 34.3211 11.8222L23.8211 22.3222L20.8111 25.3322V11.656L25.7636 6.76474ZM10.3111 22.2238C10.3109 22.1104 10.3549 22.0014 10.4336 21.9197L18.1861 14.2635V27.9638L10.3111 35.8388V22.2238ZM26.0807 37.5604C25.9993 37.6412 25.8893 37.6868 25.7745 37.6872H12.1661L20.4261 29.4294L25.2911 24.5622H38.9301L26.0807 37.5604Z" fill="#FDFCFA"/>
</svg>
