<svg width="49" height="35" viewBox="0 0 49 35" fill="none" xmlns="http://www.w3.org/2000/svg">
<path d="M48.6102 16.5469L32.6162 0.361984C32.3636 0.123745 32.0294 -0.00595474 31.6841 0.000209808C31.3388 0.00637817 31.0094 0.147926 30.7652 0.395039C30.521 0.642151 30.3811 0.975533 30.375 1.32495C30.3689 1.67436 30.4971 2.01253 30.7325 2.26821L44.4496 16.1513L1.33283 16.1513C0.979342 16.1513 0.640332 16.2934 0.390378 16.5463C0.140423 16.7992 0 17.1423 0 17.5C0 17.8577 0.140423 18.2008 0.390378 18.4537C0.640332 18.7066 0.979342 18.8487 1.33283 18.8487L44.4496 18.8487L30.7325 32.7318C30.4971 32.9875 30.3689 33.3256 30.375 33.6751C30.3811 34.0245 30.521 34.3578 30.7652 34.605C31.0094 34.8521 31.3388 34.9936 31.6841 34.9998C32.0294 35.006 32.3636 34.8763 32.6162 34.638L48.6102 18.4531C48.8598 18.2002 49 17.8574 49 17.5C49 17.1426 48.8598 16.7998 48.6102 16.5469Z" fill="#00205F"/>
</svg>
